<?xml version="1.0" encoding="utf-8"?>
<!-- Generator: Adobe Illustrator 21.1.0, SVG Export Plug-In . SVG Version: 6.00 Build 0)  -->
<svg version="1.1" id="Camada_1" xmlns="http://www.w3.org/2000/svg" xmlns:xlink="http://www.w3.org/1999/xlink" x="0px" y="0px"
	 viewBox="729.5 327.5 51 50.8" style="enable-background:new 729.5 327.5 51 50.8;" xml:space="preserve">
<style type="text/css">
	.st0{stroke:#000000;stroke-miterlimit:10;}
</style>
<g>
	<path class="st0" d="M778,369.5L764.9,359c2.4-3.2,3.9-7.2,3.9-11.6c0-10.7-8.7-19.4-19.4-19.4c-10.7,0-19.4,8.7-19.4,19.4
		c0,10.7,8.7,19.4,19.4,19.4c4.4,0,8.4-1.5,11.6-3.9l10.4,13.1c2.5,2.7,5.7,2,7.2,0C780.3,374,780.7,372,778,369.5z M749.4,360.8
		c-7.4,0-13.4-6-13.4-13.4c0-7.4,6-13.4,13.4-13.4c7.4,0,13.4,6,13.4,13.4C762.8,354.8,756.7,360.8,749.4,360.8z"/>
</g>
</svg>
