<?xml version="1.0" encoding="utf-8"?>
<!-- Generator: Adobe Illustrator 21.1.0, SVG Export Plug-In . SVG Version: 6.00 Build 0)  -->
<svg version="1.1" id="Camada_1" xmlns="http://www.w3.org/2000/svg" xmlns:xlink="http://www.w3.org/1999/xlink" x="0px" y="0px"
	 viewBox="0 0 600 600" style="enable-background:new 0 0 600 600;" xml:space="preserve">
<style type="text/css">
	.st0{fill-rule:evenodd;clip-rule:evenodd;fill:#070308;}
</style>
<g>
	<path class="st0" d="M100,501.1c2.3-8.7,4.2-16.3,6.2-23.8c6.6-24.2,13.4-48.3,19.7-72.5c0.9-3.6,0.5-8.4-1.2-11.6
		c-61.4-117,1.9-258.5,130.7-288.7c116.9-27.4,222,51.5,241.2,157c20,110.1-52,214.6-161.3,233.8c-43.4,7.5-84.9,1.1-124.5-18.2
		c-3.5-1.7-8.5-2.2-12.3-1.3C145.8,489,110.7,499,100,501.1z M146.5,455.3c19.9-5.2,38.2-9.8,56.3-14.9c5.1-1.4,9.1-0.7,13.6,1.9
		c34.3,19.8,71.1,27.2,110.4,20.9c90.5-14.5,152.5-99.2,138.7-189.4c-14.4-93.5-102-156.2-194.6-139.2
		C158.8,155.2,99.3,280.1,155,379c6.2,11,7.9,20,3.7,31.7C153.8,424.7,150.8,439.3,146.5,455.3z"/>
	<path class="st0" d="M352.6,394.1c-38.9-1.4-101-32.2-143.4-105.9c-15.1-26.2-12.9-56.1,9.2-76.7c7.5-7,16.8-5.2,25.6-3.8
		c2.2,0.3,4.4,3.6,5.5,6.1c5.7,12.8,11.2,25.8,16.2,38.9c2.6,7-2.2,13.5-12.3,25.1c-3.2,3.7-3.9,7.1-1.3,11.3
		c16.3,27.7,39.2,47.7,69.2,59.4c4.4,1.7,7.7,0.6,10.5-2.8c15.9-19.4,17.5-25.1,25.9-21.1c40.3,19.3,43.4,20.1,43.6,24.6
		C402.6,383.2,371.5,395.4,352.6,394.1z"/>
</g>
</svg>
